# xmcd
#
# Track frame offsets:
#	150
#	13328
#	31339
#	42182
#	56065
#	70348
#	84047
#	98741
#	113198
#	124041
#	137035
#	150675
#	168773
#	184776
#	196718
#	211230
#	221336
#
# Disc length: 3194 seconds
#
# Revision: 0
# Processed by: cddbd v1.5.2PL0 Copyright (c) Steve Scherf et al.
# Submitted via: audiograbber 1.83.01
#
DISCID=df0c7811
DTITLE=Lynn Anderson - Live At Billy Bob's Texas
DYEAR=2000
DGENRE=Country
TTITLE0=Listen To The Country Song
TTITLE1=Someday Soon
TTITLE2=Even Cowgirls Get The Blues
TTITLE3=Smile For Me
TTITLE4=Top Of The World
TTITLE5=Isn't It Always Love
TTITLE6=Cry
TTITLE7=Rose Garden
TTITLE8=What A Man My Man Is
TTITLE9=I've Never Loved Anyone More
TTITLE10=How Can I Unlove You
TTITLE11=Under The Boardwalk
TTITLE12=Faithless Love
TTITLE13=You're My Man
TTITLE14=Rocky Top
TTITLE15=I've Been Everywhere
TTITLE16=What Fools Say
EXTD=
EXTT0=
EXTT1=
EXTT2=
EXTT3=
EXTT4=
EXTT5=
EXTT6=
EXTT7=
EXTT8=
EXTT9=
EXTT10=
EXTT11=
EXTT12=
EXTT13=
EXTT14=
EXTT15=
EXTT16=
PLAYORDER=
